<svg width="24" height="24" viewBox="0 0 24 24" fill="none" xmlns="http://www.w3.org/2000/svg">
<path d="M15 6C15 7.65685 13.6569 9 12 9C10.3431 9 9 7.65685 9 6C9 4.34315 10.3431 3 12 3C13.6569 3 15 4.34315 15 6Z" stroke="white" stroke-width="2"/>
<path d="M19 17.5C19 18.8294 18.9463 19.436 18.3685 19.9065C18.0412 20.1731 17.4653 20.4559 16.4266 20.6662C15.3923 20.8756 13.9656 21 12 21C10.0344 21 8.60766 20.8756 7.57341 20.6662C6.53472 20.4559 5.95885 20.1731 5.63147 19.9065C5.05374 19.436 5 18.8294 5 17.5C5 16.7793 5.53003 15.9229 6.83352 15.1897C8.10561 14.4741 9.93025 14 12 14C14.0697 14 15.8944 14.4741 17.1665 15.1897C18.47 15.9229 19 16.7793 19 17.5Z" stroke="white" stroke-width="2"/>
</svg>
